<?xml version="1.0"?><svg xmlns="http://www.w3.org/2000/svg"  viewBox="0 0 128 128" width="128px" height="128px">    <path d="M 64 6.0507812 C 49.15 6.0507812 34.3 11.7 23 23 C 12 33.9 6 48.5 6 64 C 6 79.5 12 94.1 23 105 C 34.3 116.3 49.2 122 64 122 C 78.9 122 93.7 116.3 105 105 C 116 94 122 79.5 122 64 C 122 48.5 116 33.9 105 23 C 93.7 11.7 78.85 6.0507812 64 6.0507812 z M 64 12 C 77.3 12 90.600781 17.099219 100.80078 27.199219 C 110.60078 37.099219 116 50.1 116 64 C 116 77.9 110.60078 90.900781 100.80078 100.80078 C 80.500781 121.10078 47.500781 121.10078 27.300781 100.80078 C 17.400781 90.900781 12 77.9 12 64 C 12 50.1 17.399219 37.099219 27.199219 27.199219 C 37.399219 17.099219 50.7 12 64 12 z M 68.962891 46 C 68.200391 46 67.450391 46.300391 66.900391 46.900391 C 65.700391 48.100391 65.700391 49.999609 66.900391 51.099609 L 76.800781 61 L 46 61 C 44.3 61 43 62.3 43 64 C 43 65.7 44.3 67 46 67 L 76.800781 67 L 66.900391 76.900391 C 65.700391 78.100391 65.700391 79.999609 66.900391 81.099609 C 67.500391 81.699609 68.3 82 69 82 C 69.7 82 70.499609 81.699609 71.099609 81.099609 L 86.099609 66.099609 C 87.299609 64.899609 87.299609 63.000391 86.099609 61.900391 L 71.099609 46.900391 C 70.499609 46.300391 69.725391 46 68.962891 46 z"/></svg>